<svg xmlns="http://www.w3.org/2000/svg" viewBox="0 0 89.54 99.71"><defs><style>.cls-1{fill:#f87171;}</style></defs><g id="Layer_2" data-name="Layer 2"><g id="OBJECTS"><path class="cls-1" d="M44.77,41.28a29.34,29.34,0,0,1,36.3-7.52L67.8,21.42h0V5.11H56.06V10.5L44.77,0,8.45,33.79A29,29,0,0,1,22,30.45,29.5,29.5,0,0,1,44.77,41.28Zm0-12.76-3.3-3.29,3.3-3.29,3.29,3.29Zm7.63-7.63L49.12,24.2l-3.29-3.31,3.29-3.29ZM44.74,13.2,48,16.5l-3.29,3.3-3.3-3.3ZM40.4,17.54l3.29,3.29L40.4,24.14l-3.3-3.31Z"/><path class="cls-1" d="M34.52,94.09c5.25,3,9.28,5.08,10.15,5.52v.1l.1,0,.09,0v-.1c.87-.44,4.91-2.55,10.2-5.53-3.78-3.63-7.47-7.13-10.49-10C41.69,86.93,38.16,90.43,34.52,94.09Z"/><path class="cls-1" d="M79.46,41.36c-.32-.21-.65-.42-1-.61a21.8,21.8,0,0,0-10.9-2.92A22,22,0,0,0,48.46,48.88c-2.05,3.59-3.14,10.6-3.69,18.28-.56-7.68-1.65-14.69-3.7-18.28a21.86,21.86,0,0,0-7.14-7.52A22.08,22.08,0,0,0,22,37.83a21.82,21.82,0,0,0-10.92,2.92c-.34.19-.67.4-1,.61a22,22,0,0,0-7.16,29.4c3.63,6.33,18.06,15.53,29,21.83,4-3.69,7.78-7.28,10.85-10.21-2.44-2.29-4.24-4-5-4.68-3.24-3-12.7-2.3-15.24-4.81S11.25,59.62,11.25,59.62l1.14-1.22,9.38,9.52a.75.75,0,0,0,1.05,0,.72.72,0,0,0,0-1.05L13.4,57.31l1-1.12S23,64,24.32,65.08s1.89.46,1.93.4.64-.72-.54-1.89S16,54.43,16,54.43l1-1.11L27.38,62a.73.73,0,0,0,1-.1.75.75,0,0,0-.08-1l-10.26-8.6L19.22,51s11.4,7.84,14.12,10.15S36.1,73,39.34,76c.77.72,2.64,2.43,5.2,4.73,2.3-2.18,4-3.8,4.7-4.5,1.91-1.84,2.63-6,3.47-9.54,0-.18.07-.34.1-.53a15.3,15.3,0,0,1,2.32-5.07A19.67,19.67,0,0,1,57.71,58a17.56,17.56,0,0,1,7.1-4.3,10.7,10.7,0,0,1,3.76-.5,6.8,6.8,0,0,1,1.89.33,6.43,6.43,0,0,1,1.5.7,7.66,7.66,0,0,1,.92.77,6.73,6.73,0,0,1,.74.95,6.37,6.37,0,0,1,.66,1.53,8,8,0,0,1,.27,1.89,10.88,10.88,0,0,1-.64,3.75,17.71,17.71,0,0,1-4.54,7,18.62,18.62,0,0,1-3.14,2.46,15.31,15.31,0,0,1-5.14,2.15l-.53.09c-3.56.73-7.75,1.3-9.67,3.13l-4.54,4.44c3.25,2.94,7.26,6.54,11.39,10.2C68.64,86.23,83,77.08,86.62,70.76A22,22,0,0,0,79.46,41.36Z"/></g></g></svg>